<?xml version="1.0" encoding="UTF-8"?>
<svg width="210px" height="56px" viewBox="0 0 210 56" version="1.1" xmlns="http://www.w3.org/2000/svg" xmlns:xlink="http://www.w3.org/1999/xlink">
    <!-- Generator: Sketch 52.1 (67048) - http://www.bohemiancoding.com/sketch -->
    <title>Group 39</title>
    <desc>Created with Sketch.</desc>
    <defs>
        <polygon id="path-1" points="0 0.183433734 18.3712308 0.183433734 18.3712308 29.8327436 0 29.8327436"></polygon>
        <polygon id="path-3" points="0 55.478141 209.904872 55.478141 209.904872 0.897884615 0 0.897884615"></polygon>
    </defs>
    <g id="Page-1" stroke="none" stroke-width="1" fill="none" fill-rule="evenodd">
        <g id="Desktop-1" transform="translate(-30.000000, -671.000000)">
            <g id="left-text" transform="translate(30.000000, 671.000000)">
                <g id="Group-39">
                    <g id="Group-3" transform="translate(0.000000, 0.734551)">
                        <mask id="mask-2" fill="white">
                            <use xlink:href="#path-1"></use>
                        </mask>
                        <g id="Clip-2"></g>
                        <path d="M4.02482051,26.3551795 C4.02482051,26.3551795 6.57533333,26.3650513 7.13353846,26.3650513 C8.09020513,26.3650513 8.98674359,26.2851795 9.82315385,26.1263333 C10.6604615,25.9665897 11.3972564,25.6946667 12.0353333,25.3096667 C12.6725128,24.9246667 13.1768718,24.4068462 13.5493077,23.7553077 C13.9217436,23.1046667 14.1075128,22.2745385 14.1075128,21.2640256 C14.1075128,20.2813333 13.9343077,19.4512051 13.5896923,18.773641 C13.2441795,18.0960769 12.7730256,17.5522308 12.1744359,17.1403077 C11.5767436,16.7283846 10.8659744,16.4358205 10.0430256,16.2626154 C9.21828205,16.0903077 8.32892308,16.0041538 7.37225641,16.0041538 L4.02482051,16.0041538 L4.02482051,26.3551795 Z M6.93430769,12.6558205 C8.74084615,12.6558205 10.122,12.2645385 11.0786667,11.4810769 C12.0353333,10.6976154 12.5127692,9.52197436 12.5127692,7.95415385 C12.5127692,6.43928205 12.0012308,5.48620513 10.9790513,4.74133333 C9.95597436,3.99825641 8.56764103,3.62582051 6.81405128,3.62582051 C6.28276923,3.62582051 4.032,3.62133333 4.032,3.62133333 L4.02482051,12.6558205 L6.93430769,12.6558205 Z M-0.000179487179,0.262230769 C0.663923077,0.130307692 5.20135897,0.203897436 6.42366667,0.203897436 C7.93764103,0.203897436 9.25328205,0.315179487 10.5025128,0.579923077 C11.7517436,0.845564103 12.8914872,1.34005128 13.7682821,1.95658974 C14.6639231,2.58479487 15.3486667,3.32517949 15.8404615,4.26748718 C16.3322564,5.21069231 16.5781538,6.35941026 16.5781538,7.71453846 C16.5781538,8.53838462 16.4516154,9.30210256 16.1994359,10.0065897 C15.9472564,10.7101795 15.6080256,11.3347949 15.1835385,11.8795385 C14.7581538,12.4242821 14.2672564,12.8756923 13.7090513,13.2337692 C13.1508462,13.5927436 12.5791795,13.8521026 11.9949487,14.0118462 C12.7389231,14.0908205 13.4900769,14.2900513 14.2466154,14.6095385 C15.0040513,14.9281282 15.6878974,15.3795385 16.2990513,15.9637692 C16.9102051,16.5488974 17.4082821,17.2856923 17.7941795,18.1759487 C18.1782821,19.0662051 18.3712308,20.1485128 18.3712308,21.4237692 C18.3712308,22.9646667 18.0661026,24.2731282 17.4549487,25.3491538 C16.8437949,26.4251795 16.0136667,27.2956923 14.9636667,27.9597949 C13.9145641,28.6238974 12.6787949,29.1022308 11.2581538,29.3938974 C9.83661538,29.6864615 8.31546154,29.8327436 6.69558974,29.8327436 C5.68507692,29.8327436 -0.000179487179,29.8121026 -0.000179487179,29.8121026 L-0.000179487179,0.262230769 Z" id="Fill-1" fill="#221E1F" mask="url(#mask-2)"></path>
                    </g>
                    <path d="M41.9591667,27.1263462 C43.7917308,27.1263462 45.146859,26.4775 46.0236538,25.1798077 C46.9004487,23.8821154 47.3491667,22.4803205 47.3491667,20.1694231 C47.3491667,17.8594231 46.9112179,16.376859 46.0344231,15.0926282 C45.1567308,13.8075 43.8025,13.1649359 41.9690385,13.1649359 C40.1355769,13.1649359 38.7867308,13.8075 37.9242949,15.0926282 C37.0609615,16.376859 36.6292949,17.8594231 36.6292949,20.1694231 C36.6292949,22.4803205 37.0510897,23.8821154 37.9144231,25.1798077 C38.776859,26.4775 40.1257051,27.1263462 41.9591667,27.1263462 M41.9690385,30.6039103 C40.3751923,30.6039103 38.9805769,30.3373718 37.7851923,29.8051923 C36.5889103,29.2739103 35.5927564,28.5398077 34.7958333,27.6055769 C33.9989103,26.6713462 33.4075,25.5683974 33.0225,24.2958333 C32.6375,23.0250641 32.4445513,21.6483974 32.4445513,20.1694231 C32.4445513,18.6895513 32.6375,17.3137821 33.0225,16.0421154 C33.4075,14.7704487 33.9989103,13.6675 34.7958333,12.7323718 C35.5927564,11.798141 36.5889103,11.0586538 37.7851923,10.5130128 C38.9805769,9.96826923 40.3751923,9.69544872 41.9690385,9.69544872 C43.5637821,9.69544872 44.9583974,9.96826923 46.1537821,10.5130128 C47.3491667,11.0586538 48.3453205,11.798141 49.1422436,12.7323718 C49.9400641,13.6675 50.5305769,14.7704487 50.9155769,16.0421154 C51.3005769,17.3137821 51.4935256,18.6895513 51.4935256,20.1694231 C51.4935256,21.6483974 51.3005769,23.0250641 50.9155769,24.2958333 C50.5305769,25.5683974 49.9400641,26.6713462 49.1422436,27.6055769 C48.3453205,28.5398077 47.3491667,29.2739103 46.1537821,29.8051923 C44.9583974,30.3373718 43.5637821,30.6039103 41.9690385,30.6039103" id="Fill-4" fill="#333333"></path>
                    <path d="M80.5216282,19.4713974 L86.0982949,9.62832051 L90.4418846,9.62832051 L84.8652179,19.1922949 L91.8876538,30.5296026 L87.5054744,30.5296026 L80.5216282,19.4713974 Z M74.4989359,30.5296026 L78.4440641,30.5296026 L78.4440641,0.90075641 L74.4989359,0.90075641 L74.4989359,30.5296026 Z" id="Fill-6" fill="#333333"></path>
                    <path d="M116.233205,16.4728846 C115.644487,15.8491667 114.934615,15.3035256 114.104487,14.8386538 C113.274359,14.3746795 112.323077,13.9286538 111.252436,13.5032692 L109.003462,12.6264744 C108.440769,12.4146795 107.905,12.1759615 107.396154,11.9094231 C106.887308,11.6446795 106.444872,11.3458333 106.070641,11.0128846 C105.695513,10.6808333 104.725385,9.77173077 104.725385,8.26762821 C104.725385,6.9125 105.372436,5.93160256 106.282436,5.25403846 C107.193333,4.57647436 108.469487,4.30903846 110.156667,4.30903846 C111.361026,4.30903846 115.992692,4.40057692 115.992692,4.40057692 L115.992692,0.975064103 C115.992692,0.975064103 111.292821,0.910448718 110.006795,0.910448718 C107.007564,0.910448718 104.677821,1.59519231 103.017564,2.96288462 C101.357308,4.33147436 100.527179,6.22416667 100.527179,8.64185897 C100.527179,9.65147436 100.660897,10.5219872 100.929231,11.2525 C101.196667,11.9830128 101.564615,12.6264744 102.033974,13.1846795 C102.502436,13.7428846 103.057949,14.2149359 103.700513,14.5999359 C104.343077,14.9849359 105.052949,15.3367308 105.829231,15.6553205 L108.119487,16.5725 C109.029487,16.9449359 109.82641,17.2895513 110.509359,17.608141 C111.192308,17.9276282 111.760385,18.2803205 112.216282,18.6644231 C112.671282,19.0503205 113.013205,19.5089103 113.241154,20.0392949 C113.468205,20.5714744 113.582179,21.2086538 113.582179,21.9517308 C113.582179,23.4666026 113.040128,24.818141 111.955128,25.7083974 C110.871026,26.5986538 109.230513,27.0428846 107.034487,27.0428846 L100.485897,27.0428846 L100.505641,30.5204487 C100.505641,30.5204487 106.365,30.5204487 107.195128,30.5204487 C110.623333,30.5204487 113.085897,30.1273718 114.987564,28.5460897 C116.889231,26.9657051 118.040641,24.4098077 118.040641,21.6735256 C118.040641,20.5310897 117.886282,19.5349359 117.579359,18.6841667 C117.270641,17.8342949 116.821923,17.0966026 116.233205,16.4728846" id="Fill-8" fill="#333333"></path>
                    <path d="M134.782577,9.66107692 L138.727705,9.66107692 L138.727705,20.8592821 C138.727705,22.1345385 138.847064,23.1908205 139.086679,24.0272308 C139.325397,24.8645385 139.684372,25.3518462 140.162705,25.8310769 C140.641038,26.3085128 141.225269,26.6414615 141.915397,26.8263333 C142.606423,27.013 143.403346,27.1054359 144.306167,27.1054359 L147.774756,27.1054359 L147.774756,9.66107692 L151.6795,9.66107692 L151.6795,30.5632564 C151.6795,30.5632564 145.727705,30.583 144.346551,30.583 C143.045269,30.583 141.815782,30.4699231 140.660782,30.2437692 C139.504885,30.0185128 138.488987,29.5608205 137.612192,28.8697949 C136.735397,28.1787692 136.044372,27.2095385 135.540013,25.9603077 C135.034756,24.7119744 134.782577,23.0642821 134.782577,21.0190256 L134.782577,9.66107692 Z" id="Fill-10" fill="#333333"></path>
                    <path d="M170.315474,13.1182692 L166.609064,13.1182692 C165.519577,13.1182692 164.576372,13.3175 163.780346,13.7159615 C162.982526,14.1144231 161.884064,15.0405769 161.168808,16.2709615 C160.511885,17.4017308 160.181628,19.1059615 160.181628,20.2214744 C160.208551,22.7459615 160.897782,24.3371154 162.067141,25.4257051 C163.235603,26.5160897 164.829449,27.0599359 166.848679,27.0599359 C167.539705,27.0599359 170.315474,27.0742949 170.315474,27.0742949 L170.315474,13.1182692 Z M170.315474,0.900576923 L174.222013,0.900576923 L174.222013,30.516859 C174.222013,30.516859 168.190346,30.5375 166.649449,30.5375 C165.214449,30.5375 163.853038,30.3580128 162.564321,29.9999359 C161.275603,29.6409615 160.153808,29.0495513 159.197141,28.2266026 C158.240474,27.4027564 157.483038,26.3401923 156.925731,25.0380128 C156.367526,23.7358333 156.089321,22.1285256 156.089321,20.2160897 C156.089321,18.5692949 156.334321,17.5058333 156.826115,16.1516026 C157.317013,14.7964744 158.014321,13.6342949 158.918038,12.6641667 C159.820859,11.6949359 160.904064,10.9446795 162.165859,10.4125 C163.427654,9.88121795 164.829449,9.61557692 166.371244,9.61557692 C167.060474,9.61557692 170.315474,9.66134615 170.315474,9.66134615 L170.315474,0.900576923 Z" id="Fill-12" fill="#333333"></path>
                    <mask id="mask-4" fill="white">
                        <use xlink:href="#path-3"></use>
                    </mask>
                    <g id="Clip-15"></g>
                    <polygon id="Fill-14" fill="#333333" mask="url(#mask-4)" points="182.093333 4.35121795 186.405513 4.35121795 186.405513 0.896987179 182.093333 0.896987179"></polygon>
                    <polygon id="Fill-16" fill="#333333" mask="url(#mask-4)" points="182.101321 13.1766026 180.04709 13.1766026 177.97491 9.63621795 186.405423 9.62185897 186.405423 30.5240385 182.093244 30.5410897"></polygon>
                    <path d="M200.380295,27.065141 C202.213756,27.065141 203.568885,26.4162949 204.444782,25.1168077 C205.322474,23.8182179 205.760423,22.4128333 205.760423,20.1010385 C205.760423,17.7892436 205.322474,16.3371923 204.444782,15.0520641 C203.568885,13.7660385 202.213756,13.1234744 200.380295,13.1234744 C198.546833,13.1234744 197.198885,13.7660385 196.335551,15.0520641 C195.472218,16.3371923 195.040551,17.7892436 195.040551,20.1010385 C195.040551,22.4128333 195.472218,23.8182179 196.335551,25.1168077 C197.198885,26.4162949 198.546833,27.065141 200.380295,27.065141 M200.380295,30.5427051 C198.786449,30.5427051 197.391833,30.2761667 196.196449,29.7439872 C195.000167,29.2118077 194.00491,28.4777051 193.20709,27.5425769 C192.410167,26.6074487 191.818756,25.5036026 191.433756,24.2310385 C191.048756,22.9584744 190.855808,21.5818077 190.855808,20.1010385 C190.855808,18.6202692 191.048756,17.2436026 191.433756,15.9710385 C191.818756,14.6993718 192.410167,13.5946282 193.20709,12.6595 C194.00491,11.7243718 195.000167,10.9839872 196.196449,10.4383462 C197.391833,9.89360256 198.786449,9.62078205 200.380295,9.62078205 C201.974141,9.62078205 203.369654,9.89360256 204.565038,10.4383462 C205.760423,10.9839872 206.756577,11.7243718 207.5535,12.6595 C208.351321,13.5946282 208.941833,14.6993718 209.327731,15.9710385 C209.711833,17.2436026 209.904782,18.6202692 209.904782,20.1010385 C209.904782,21.5818077 209.711833,22.9584744 209.327731,24.2310385 C208.941833,25.5036026 208.351321,26.6074487 207.5535,27.5425769 C206.756577,28.4777051 205.760423,29.2118077 204.565038,29.7439872 C203.369654,30.2761667 201.974141,30.5427051 200.380295,30.5427051" id="Fill-17" fill="#333333" mask="url(#mask-4)"></path>
                    <path d="M64.7200256,13.1845 L70.1369487,13.1845 L70.1557949,9.69526923 L64.7200256,9.69526923 C63.0723333,9.69526923 61.3860513,9.9995 60.1368205,10.5433462 C58.8875897,11.0880897 57.8456667,11.8266795 57.008359,12.7600128 C56.1719487,13.6924487 55.5401538,14.7945 55.1156667,16.0643718 C54.6902821,17.3342436 54.4775897,18.7073205 54.4775897,20.1845 C54.4775897,23.3730897 55.3409231,25.9065513 57.0684872,27.7848846 C58.7951538,29.6650128 61.3591282,30.6037308 64.7595128,30.6037308 C64.7936154,30.6037308 64.8259231,30.6019359 64.8591282,30.6019359 L64.8591282,30.6037308 L70.1369487,30.6037308 L70.1557949,27.0974487 L69.5661795,27.0974487 L65.0395128,27.0974487 C65.0278462,27.0974487 65.0170769,27.0974487 65.0045128,27.0974487 C64.9847692,27.0974487 64.9659231,27.0974487 64.9461795,27.0974487 C62.9825897,27.0911667 61.4668205,26.4737308 60.3360513,25.3312949 C59.1936154,24.1780897 58.6228462,22.6730897 58.6228462,20.1845 C58.6228462,18.0073205 59.1586154,16.6333462 60.1682308,15.3114231 C61.1778462,13.9895 62.6738718,13.1845 64.7200256,13.1845" id="Fill-18" fill="#333333" mask="url(#mask-4)"></path>
                    <path d="M29.0208333,27.062359 C29.0208333,27.0614615 28.2625,27.0605641 28.2625,27.0605641 C27.4521154,27.0605641 26.8346795,26.4781282 26.8221154,25.5887692 L26.8221154,4.32582051 L22.7549359,4.32582051 L22.7316026,26.4494103 C22.7316026,28.6965897 24.5516026,30.5183846 26.7978846,30.5219744 L26.8041667,30.5264615 L30.9485256,30.5372308" id="Fill-19" fill="#333333" mask="url(#mask-4)"></path>
                    <path d="M129.023731,27.0042949 L129.10091,27.0016026 L128.4745,27.0016026 C127.477449,26.9764744 126.956038,26.2540385 126.956038,25.5773718 L126.956038,13.121859 L131.048346,13.121859 L129.002192,9.6649359 L126.916551,9.6649359 L126.928218,4.32967949 L123.041423,4.32608974 L123.037833,9.66134615 L120.825654,9.66403846 L120.825654,13.121859 L123.035141,13.121859 L123.027962,26.5125 C123.027962,28.6950641 124.781551,30.4639103 126.945269,30.4639103 C126.979372,30.4639103 127.013474,30.4603205 127.047577,30.4585256 L131.048346,30.4585256 L129.023731,27.0042949 Z" id="Fill-20" fill="#333333" mask="url(#mask-4)"></path>
                    <path d="M11.6530256,53.3359615 C12.4822564,52.3873718 12.9893077,51.3651923 13.0000769,50.011859 L13.0009744,50.011859 L13.0009744,45.6216026 L7.27623077,45.6216026 L7.27623077,42.0309615 L13.2872564,42.0309615 L13.2872564,40.8508333 L6.09610256,40.8508333 L6.09610256,52.6745513 C6.09610256,53.4005769 5.38712821,54.1948077 4.57584615,54.1948077 L4.1145641,54.1948077 L4.1145641,47.8625 L1.18084615,47.8625 L1.18084615,46.8017308 L4.1145641,46.8017308 L4.1145641,40.8813462 L2.9344359,40.8813462 L2.9344359,45.6207051 L1.18084615,45.6207051 L1.18084615,40.8813462 L-0.000179487179,40.8813462 L-0.000179487179,55.3821154 L1.18084615,55.3821154 L1.18084615,49.0435256 L2.9344359,49.0435256 L2.9344359,55.3749359 L4.64764103,55.3749359 L4.64764103,55.3713462 C6.097,55.3713462 7.27533333,54.2333974 7.27533333,52.6942949 L7.27623077,52.6942949 L7.27623077,46.8017308 L11.8199487,46.8017308 L11.8199487,49.9714744 C11.8199487,51.0510897 11.4143077,51.8201923 10.7502051,52.5722436 C10.072641,51.8175 9.65712821,51.0376282 9.65712821,49.9454487 L9.65712821,47.8625 L8.47610256,47.8625 L8.47610256,49.9454487 C8.47610256,51.3310897 8.99751282,52.3819872 9.85276923,53.3440385 C9.18866667,53.7712179 8.40161538,54.2360897 7.55533333,54.2360897 L7.55533333,55.4171154 C8.75071795,55.4171154 9.85725641,54.8140385 10.7564872,54.1580128 C11.6494359,54.7978846 12.6985385,55.3910897 13.8786667,55.3910897 L13.8786667,54.2109615 C13.0440513,54.2109615 12.3108462,53.7514744 11.6530256,53.3359615" id="Fill-21" fill="#333333" mask="url(#mask-4)"></path>
                    <polygon id="Fill-22" fill="#333333" mask="url(#mask-4)" points="195.33141 44.3921154 201.888077 44.3921154 201.888077 43.2119872 195.33141 43.2119872"></polygon>
                    <polygon id="Fill-23" fill="#333333" mask="url(#mask-4)" points="196.446026 49.0542949 200.778846 49.0542949 200.778846 47.8741667 196.446026 47.8741667"></polygon>
                    <polygon id="Fill-24" fill="#333333" mask="url(#mask-4)" points="196.446026 46.7900641 200.778846 46.7900641 200.778846 45.6099359 196.446026 45.6099359"></polygon>
                    <polygon id="Fill-25" fill="#333333" mask="url(#mask-4)" points="197.607308 42.0228846 199.611282 42.0228846 199.611282 40.8427564 197.607308 40.8427564"></polygon>
                    <path d="M197.614936,51.3830513 L197.614936,53.3538205 C197.614936,53.8312564 198.003526,54.2207436 198.481859,54.2207436 L199.609936,54.2207436 L199.609936,51.3830513 L197.614936,51.3830513 Z M200.790064,55.4008718 L198.481859,55.4008718 C197.352885,55.4008718 196.434808,54.4827949 196.434808,53.3538205 L196.434808,50.2029231 L200.790064,50.2029231 L200.790064,55.4008718 Z" id="Fill-26" fill="#333333" mask="url(#mask-4)"></path>
                    <polygon id="Fill-27" fill="#333333" mask="url(#mask-4)" points="209.835321 45.6095769 206.791218 45.6095769 206.791218 40.9106026 205.61109 40.9106026 205.61109 45.6095769 202.566987 45.6095769 202.566987 46.7897051 205.61109 46.7897051 205.61109 55.4167564 206.791218 55.4167564 206.791218 46.7897051 209.835321 46.7897051"></polygon>
                    <polygon id="Fill-28" fill="#333333" mask="url(#mask-4)" points="124.315513 44.3391667 130.870385 44.3391667 130.870385 43.1590385 124.315513 43.1590385"></polygon>
                    <polygon id="Fill-29" fill="#333333" mask="url(#mask-4)" points="125.428333 49.0004487 129.761154 49.0004487 129.761154 47.8203205 125.428333 47.8203205"></polygon>
                    <polygon id="Fill-30" fill="#333333" mask="url(#mask-4)" points="125.428333 46.7362179 129.761154 46.7362179 129.761154 45.5560897 125.428333 45.5560897"></polygon>
                    <polygon id="Fill-31" fill="#333333" mask="url(#mask-4)" points="126.455897 42.0345513 128.459872 42.0345513 128.459872 40.9037821 126.455897 40.9037821"></polygon>
                    <path d="M126.597333,51.3827821 L126.597333,53.3535513 C126.597333,53.8309872 126.985923,54.2204744 127.464256,54.2204744 L128.592333,54.2204744 L128.592333,51.3827821 L126.597333,51.3827821 Z M129.772462,55.4006026 L127.464256,55.4006026 C126.335282,55.4006026 125.417205,54.4825256 125.417205,53.3535513 L125.417205,50.2026538 L129.772462,50.2026538 L129.772462,55.4006026 Z" id="Fill-32" fill="#333333" mask="url(#mask-4)"></path>
                    <polygon id="Fill-33" fill="#333333" mask="url(#mask-4)" points="132.150038 40.9038718 132.150038 45.6136154 133.323885 45.6136154 133.323885 42.0875897 136.947731 42.0875897 136.947731 45.6207949 138.127859 45.6207949 138.127859 40.9074615"></polygon>
                    <path d="M138.061897,54.2287308 C137.281128,54.2161667 136.621513,53.7566795 136.177282,53.4219359 C137.43459,52.1116795 138.157026,50.5034744 138.163308,49.0047564 L138.164205,49.0047564 L138.164205,46.7369359 L132.174718,46.7369359 L132.174718,47.9529615 L136.947282,47.9529615 L136.947282,48.9850128 C136.947282,50.3392436 136.152154,51.530141 135.115615,52.5424487 C134.113179,51.5516795 133.363821,50.3912949 133.363821,49.0047564 L132.146897,49.0047564 C132.146897,50.6246282 132.968949,52.0811667 134.160744,53.315141 C133.552282,53.805141 132.980615,54.2098846 132.249205,54.2098846 L131.516,54.2089872 L131.516,55.4259103 L132.249205,55.4259103 C133.364718,55.4259103 134.205615,54.8775769 135.103949,54.1416795 C135.966385,54.8686026 136.834205,55.4456538 138.059205,55.4456538 L138.061897,55.4456538 L138.808564,55.4456538 L138.808564,54.2287308 L138.061897,54.2287308 Z" id="Fill-34" fill="#333333" mask="url(#mask-4)"></path>
                    <polygon id="Fill-35" fill="#333333" mask="url(#mask-4)" points="65.0210256 42.1467308 73.0189744 42.1467308 73.0189744 40.9666026 65.0210256 40.9666026"></polygon>
                    <polygon id="Fill-36" fill="#333333" mask="url(#mask-4)" points="62.968859 50.5942051 59.6187308 53.991 60.4578333 54.8202308 63.8079615 51.4234359"></polygon>
                    <polygon id="Fill-37" fill="#333333" mask="url(#mask-4)" points="61.1213077 49.6962308 62.3014359 49.6962308 62.3014359 46.8343077 63.7552821 46.8343077 63.7552821 45.6532821 62.3014359 45.6532821 62.3014359 42.0141795 61.1213077 42.0141795 61.1213077 45.6532821 59.6405385 45.6532821 59.6405385 46.8343077 61.1213077 46.8343077"></polygon>
                    <path d="M66.2128205,48.513141 L68.4447436,48.513141 L68.4447436,46.8995513 L66.2128205,46.8995513 L66.2128205,48.513141 Z M66.2128205,45.6916026 L68.4447436,45.6916026 L68.4447436,44.4504487 L66.2128205,44.4504487 L66.2128205,45.6916026 Z M69.6284615,48.513141 L71.8253846,48.513141 L71.8253846,46.8995513 L69.6284615,46.8995513 L69.6284615,48.513141 Z M69.6284615,45.6916026 L71.8253846,45.6916026 L71.8253846,44.4504487 L69.6284615,44.4504487 L69.6284615,45.6916026 Z M74.1335897,51.4289103 L70.9817949,51.4262179 L70.9817949,52.6063462 L72.9525641,52.6063462 L72.9525641,54.2648077 L70.9817949,54.2648077 C70.2342308,54.2648077 69.6248718,53.6563462 69.6248718,52.9078846 L69.6248718,49.7130128 L69.6284615,49.7130128 L69.6284615,49.7085256 L71.8253846,49.7130128 L73.0082051,49.7130128 L73.0082051,49.7085256 L73.0082051,43.256859 L73.0082051,43.2451923 L65.0308974,43.2451923 L65.0308974,43.2496795 L65.0308974,43.256859 L65.0308974,49.7076282 L65.0308974,49.7130128 L66.3303846,49.7130128 L66.3303846,50.0558333 C66.3303846,50.8258333 65.9462821,51.5509615 65.3997436,52.0966026 L62.9658974,54.6462179 L63.8041026,55.478141 L66.2361538,52.9303205 C67.004359,52.1621154 67.5105128,51.1417308 67.5105128,50.0558333 L67.5105128,49.7076282 L68.4447436,49.7076282 L68.4447436,52.9078846 C68.4447436,54.3069872 69.5826923,55.4449359 70.9817949,55.4449359 L74.1371795,55.4449359 L74.1335897,51.4289103 Z" id="Fill-38" fill="#333333" mask="url(#mask-4)"></path>
                </g>
            </g>
        </g>
    </g>
</svg>