<?xml version="1.0" encoding="utf-8"?>
<!-- Generator: Adobe Illustrator 21.0.0, SVG Export Plug-In . SVG Version: 6.00 Build 0)  -->
<svg version="1.1" id="圖層_1" xmlns="http://www.w3.org/2000/svg" xmlns:xlink="http://www.w3.org/1999/xlink" x="0px" y="0px" width="210px" height="56px"
	 viewBox="0 0 210 56" style="enable-background:new 0 0 210 56;" xml:space="preserve">
<style type="text/css">
	.st0{fill:#0000FF;}
</style>
<title>Group 39</title>
<desc>Created with Sketch.</desc>
<g>
	<path class="st0" d="M3,4.8c0.4,0,0.8-0.1,1.3-0.1c0.5,0,1-0.1,1.5-0.1s1.1-0.1,1.6-0.1c0.5,0,1.1,0,1.6,0c1.3,0,2.6,0.1,3.8,0.4
		C14,5.1,15,5.5,15.9,6.2c0.9,0.6,1.6,1.5,2.1,2.6c0.5,1.1,0.8,2.4,0.8,4c0,1.7-0.3,3.1-0.8,4.2c-0.6,1.1-1.3,2-2.2,2.7
		c-0.9,0.7-2,1.1-3.2,1.4c-1.2,0.3-2.4,0.4-3.6,0.4c-0.5,0-0.9,0-1.2,0c-0.3,0-0.7,0-1.1-0.1v9.4c-0.6,0.1-1.2,0.1-1.8,0.1
		c-0.3,0-0.6,0-0.9,0c-0.3,0-0.6,0-0.9-0.1V4.8z M6.7,18.2c0.4,0,0.7,0.1,1,0.1c0.3,0,0.7,0,1.3,0c0.7,0,1.5-0.1,2.2-0.2
		c0.7-0.2,1.4-0.4,2-0.8c0.6-0.4,1-1,1.4-1.7c0.3-0.7,0.5-1.6,0.5-2.8c0-1-0.1-1.8-0.4-2.5c-0.3-0.7-0.7-1.2-1.2-1.6
		c-0.5-0.4-1.2-0.7-1.9-0.9C10.7,7.7,9.9,7.6,9,7.6c-0.9,0-1.7,0-2.3,0.1V18.2z"/>
	<path class="st0" d="M35,15.1h-2.3c0-0.2-0.1-0.4-0.1-0.7s0-0.5,0-0.7c0-0.2,0-0.5,0-0.7c0-0.3,0.1-0.5,0.1-0.7h5.8v18.5
		c-0.3,0-0.6,0.1-0.9,0.1c-0.3,0-0.6,0-0.9,0c-0.2,0-0.5,0-0.8,0c-0.3,0-0.6-0.1-0.9-0.1V15.1z M34.2,8.2c0-0.3-0.1-0.6-0.1-0.9
		c0-0.3,0-0.6,0-0.9c0-0.3,0-0.6,0-0.9c0-0.3,0-0.6,0.1-0.9c0.3,0,0.6-0.1,1-0.1c0.4,0,0.7,0,0.9,0c0.3,0,0.6,0,0.9,0s0.7,0.1,1,0.1
		c0,0.3,0.1,0.6,0.1,0.9c0,0.3,0,0.6,0,0.9c0,0.3,0,0.6,0,0.9c0,0.3,0,0.6-0.1,0.9c-0.3,0-0.6,0.1-1,0.1c-0.3,0-0.7,0-0.9,0
		c-0.3,0-0.6,0-1,0C34.8,8.3,34.5,8.3,34.2,8.2z"/>
	<path class="st0" d="M57.8,21.2l-4.4-8.9c0.6-0.1,1.2-0.1,1.9-0.1c0.3,0,0.7,0,1,0c0.3,0,0.7,0.1,1,0.1l3.8,8.9l-4.6,9.5
		c-0.3,0-0.6,0.1-0.9,0.1c-0.3,0-0.6,0-0.9,0c-0.3,0-0.7,0-1,0c-0.3,0-0.6-0.1-1-0.1L57.8,21.2z M61.5,21.2l3.9-8.9
		c0.3,0,0.7-0.1,1-0.1c0.3,0,0.7,0,1,0c0.6,0,1.2,0,1.8,0.1l-4.3,8.8l5,9.7c-0.3,0-0.7,0.1-1,0.1c-0.3,0-0.6,0-1,0
		c-0.6,0-1.2,0-1.8-0.1L61.5,21.2z"/>
	<path class="st0" d="M85.3,15.1h-2.3c0-0.2-0.1-0.4-0.1-0.7c0-0.3,0-0.5,0-0.7c0-0.2,0-0.5,0-0.7c0-0.3,0.1-0.5,0.1-0.7h5.8v18.5
		c-0.3,0-0.6,0.1-0.9,0.1c-0.3,0-0.6,0-0.9,0c-0.2,0-0.5,0-0.8,0c-0.3,0-0.6-0.1-0.9-0.1V15.1z M84.5,8.2c0-0.3-0.1-0.6-0.1-0.9
		c0-0.3,0-0.6,0-0.9c0-0.3,0-0.6,0-0.9c0-0.3,0-0.6,0.1-0.9c0.3,0,0.6-0.1,1-0.1c0.4,0,0.7,0,0.9,0s0.6,0,0.9,0c0.4,0,0.7,0.1,1,0.1
		c0,0.3,0.1,0.6,0.1,0.9c0,0.3,0,0.6,0,0.9c0,0.3,0,0.6,0,0.9c0,0.3,0,0.6-0.1,0.9c-0.3,0-0.6,0.1-1,0.1c-0.3,0-0.7,0-0.9,0
		c-0.3,0-0.6,0-1,0C85.1,8.3,84.8,8.3,84.5,8.2z"/>
	<path class="st0" d="M108,22.4c0,2,0.6,3.5,1.6,4.4s2.5,1.4,4.4,1.4c1.7,0,3.3-0.3,4.9-0.9c0.2,0.4,0.3,0.8,0.5,1.3s0.2,1,0.2,1.5
		c-0.8,0.3-1.7,0.6-2.6,0.8c-0.9,0.2-2,0.3-3.1,0.3c-1.7,0-3.1-0.2-4.3-0.7c-1.2-0.5-2.2-1.1-3-2c-0.8-0.9-1.3-1.9-1.7-3
		c-0.4-1.2-0.5-2.4-0.5-3.8c0-1.4,0.2-2.6,0.5-3.8c0.3-1.2,0.9-2.2,1.6-3.1c0.7-0.9,1.6-1.6,2.7-2.1c1.1-0.5,2.4-0.8,3.9-0.8
		c1.3,0,2.4,0.2,3.3,0.6c1,0.4,1.8,1,2.4,1.8c0.6,0.8,1.1,1.7,1.5,2.7c0.3,1,0.5,2.2,0.5,3.4c0,0.3,0,0.7,0,1.1c0,0.4,0,0.7-0.1,1
		H108z M117.2,19.7c0-0.7-0.1-1.3-0.3-1.9c-0.2-0.6-0.4-1.1-0.8-1.6c-0.3-0.5-0.8-0.8-1.3-1.1c-0.5-0.3-1.2-0.4-1.9-0.4
		c-1.5,0-2.6,0.4-3.4,1.3c-0.8,0.9-1.3,2.1-1.4,3.7H117.2z"/>
	<path class="st0" d="M168.5,24.8h-9.8l-1.8,6c-0.3,0-0.6,0.1-0.9,0.1c-0.3,0-0.6,0-0.9,0c-0.3,0-0.7,0-1,0c-0.3,0-0.6-0.1-0.9-0.1
		l8.4-25.9c0.3,0,0.6-0.1,1-0.1c0.4,0,0.7,0,1.1,0c0.3,0,0.7,0,1,0c0.4,0,0.7,0.1,1,0.1l8.4,25.9c-0.3,0-0.6,0.1-1,0.1
		c-0.4,0-0.7,0-1,0c-0.3,0-0.6,0-1,0c-0.3,0-0.6-0.1-0.9-0.1L168.5,24.8z M159.7,21.6h7.9l-4-13.2L159.7,21.6z"/>
	<path class="st0" d="M188.9,4.8c0.5,0,1-0.1,1.4-0.1c0.4,0,0.9-0.1,1.3-0.1s0.9-0.1,1.3-0.1c0.5,0,1,0,1.5,0c1.2,0,2.4,0.1,3.6,0.4
		c1.2,0.2,2.3,0.7,3.2,1.3c0.9,0.6,1.7,1.4,2.3,2.4c0.6,1,0.9,2.3,0.9,3.9c0,0.9-0.2,1.8-0.5,2.6c-0.3,0.8-0.7,1.5-1.2,2.1
		c-0.5,0.6-1,1.1-1.6,1.6c-0.6,0.4-1.2,0.8-1.8,1.1l-0.4,0.2l7.5,10.9c-0.6,0.1-1.4,0.1-2.2,0.1c-0.6,0-1.3,0-1.9-0.1l-8.3-12v-0.1
		l0.3-0.1c0.6-0.2,1.3-0.4,2.1-0.7c0.7-0.3,1.4-0.7,2-1.1c0.6-0.5,1.1-1,1.5-1.7s0.6-1.5,0.6-2.4c0-1.7-0.5-3-1.5-3.9
		c-1-0.8-2.4-1.3-4.1-1.3c-0.4,0-0.8,0-1.1,0c-0.3,0-0.7,0.1-1.2,0.1v23.1c-0.3,0-0.6,0-0.9,0.1c-0.3,0-0.6,0-0.9,0s-0.6,0-0.9,0
		c-0.3,0-0.6,0-0.9-0.1V4.8z"/>
</g>
<g>
	<path class="st0" d="M14.2,49.8h-2.5c0,0.2,0,0.5,0,0.7h0.4c0.1,0,0.2,0,0.2-0.1c0.1-0.1,0.3-0.3,0.4-0.5c0.1-0.1,0.2-0.1,0.3,0
		c0.3,0.2,0.6,0.4,0.9,0.6c0.1,0.1,0.1,0.1,0.1,0.2c0,0.1,0,0.1-0.1,0.2c-0.2,0.1-0.3,0.1-0.3,0.3c0,0.2,0,0.5,0,0.7
		c0,0.4,0,0.8,0,1.3c0,0,0,0,0,0c0,0.3-0.3,0.4-0.7,0.4c0,0-0.1,0-0.1,0c-0.3,0-0.5-0.1-0.5-0.3c0,0,0,0,0,0H9.9c0,0,0,0.1,0,0.1
		c0.4,0.2,1.1,0.5,1.4,0.6c0.1,0.1,0.1,0.1,0.1,0.2c0,0.1-0.1,0.2-0.2,0.2c0,0,0,0-0.1,0c-0.2,0-0.3,0-0.4,0.1
		c-0.8,0.4-1.9,0.8-3,0.9h0c-0.1,0-0.1,0-0.1-0.1c0,0,0-0.1,0.1-0.1c1-0.5,1.7-1.2,2-1.6c-0.1,0-0.2,0-0.3,0c-0.1,0-0.1,0-0.2,0
		c-0.2,0-0.4,0-0.4-0.3c0,0,0,0,0-0.1c0-0.7,0.1-1.4,0.1-2c0-0.6,0-1-0.1-1.2c0-0.1,0-0.1,0-0.2c0-0.1,0-0.1,0.1-0.1
		c0,0,0.1,0,0.2,0c0.5,0.2,1.2,0.5,1.2,0.5h0.5c0-0.3,0-0.5,0-0.7c0,0-1.2,0-2.1,0c0,0.8-0.1,1.6-0.2,2.2c-0.3,1.7-0.9,2.6-1.8,3.5
		c-0.1,0-0.1,0.1-0.1,0.1c0,0-0.1,0-0.1-0.1c0,0,0-0.1,0-0.2c0.6-1.3,0.8-2.4,0.9-4.2c0-0.4,0-0.9,0-1.4c-0.3,0.3-0.8,0.6-1.1,0.9
		c0,1.3,0,2.5,0,3.6c0,0.1,0,0.1,0,0.2c0,0.7-0.1,1-1.1,1.2c-0.1,0-0.1,0-0.2,0c-0.2,0-0.2-0.1-0.2-0.2c-0.1-0.6,0-0.9-0.9-1.2
		c-0.2-0.1-0.2-0.3,0-0.3c0,0,0,0,0,0c0.2,0,0.4,0,0.6,0c0.3,0,0.3-0.1,0.3-0.3c0-0.6,0-1.3,0-2.2c-0.1,0.1-0.2,0.1-0.3,0.2
		c-0.1,0.1-0.2,0.1-0.2,0.3c0,0.1-0.1,0.2-0.2,0.2S4,52.1,4,52c-0.1-0.5-0.3-1-0.4-1.5c0-0.1,0-0.1,0-0.1c0-0.1,0.1-0.1,0.3-0.1
		c0.3,0,0.6-0.1,0.9-0.1c0-0.7,0-1.4,0-2.1c-0.2,0-0.6,0-0.9,0.1c-0.1,0-0.2,0-0.2-0.1s-0.1-0.2-0.1-0.3c0,0,0-0.1,0-0.1
		c0,0,0,0,0,0c0,0,0,0,0.1,0c0.3,0.1,0.8,0.1,1.1,0.1c0-1.2,0-2.1,0-2.3c0-0.2,0-0.3,0-0.3c0,0,0-0.1,0.1-0.1c0,0,0.1,0,0.1,0
		c0.5,0.1,0.9,0.1,1.4,0.2c0.2,0,0.3,0.1,0.3,0.2s-0.1,0.2-0.2,0.2c-0.2,0-0.3,0.1-0.3,0.3c0,0.4,0,1,0,1.8c0,0,0.1,0,0.1,0
		c0.1-0.2,0.2-0.4,0.3-0.6c0.1-0.1,0.1-0.1,0.2,0c0.2,0.2,0.3,0.4,0.5,0.6c0-0.8-0.1-1.4-0.1-1.6c0-0.1,0-0.2,0-0.3
		c0-0.1,0-0.1,0.1-0.1c0,0,0.1,0,0.2,0c0.3,0.1,1.4,0.6,1.4,0.6h1.3c0-0.1,0-0.2,0-0.3c0-0.2,0-0.4,0-0.6c0-0.2-0.1-0.3-0.1-0.3
		c0,0,0-0.1,0.1-0.1c0,0,0.1,0,0.2,0c0.2,0,1.2,0.2,1.5,0.2c0.2,0,0.3,0.1,0.3,0.2s-0.1,0.2-0.2,0.2c-0.2,0.1-0.3,0.1-0.3,0.3
		c0,0.1,0,0.2,0,0.3h0.9c0.1,0,0.2,0,0.3-0.1c0.1-0.2,0.4-0.5,0.5-0.7c0,0,0.1-0.1,0.1-0.1s0.1,0,0.1,0.1c0.2,0.2,0.7,0.6,1,0.8
		c0.1,0.1,0.1,0.1,0.1,0.2c0,0.1-0.1,0.1-0.2,0.1H8.5c0,0.3,0,0.7,0,1.1h0.8c0-0.3,0-0.6,0-0.8c0-0.1,0-0.1,0-0.2s0,0,0.1,0
		c0,0,0,0,0.1,0c0.4,0,1,0.1,1.3,0.2c0.1,0,0.2,0.1,0.2,0.2c0,0.1,0,0.1-0.2,0.2c-0.2,0.1-0.2,0.1-0.2,0.2c0,0.1,0,0.1,0,0.2h1
		c0-0.3,0-0.6,0-0.7c0-0.1,0-0.1,0-0.2c0,0,0,0,0.1,0c0,0,0,0,0.1,0c0.4,0,1,0.1,1.4,0.2c0.1,0,0.2,0.1,0.2,0.2c0,0.1,0,0.1-0.2,0.2
		c-0.2,0.1-0.2,0.1-0.2,0.2c0,0.1,0,0.1,0,0.2h0.1c0.1,0,0.2,0,0.2-0.1c0.1-0.2,0.2-0.3,0.3-0.5c0,0,0.1-0.1,0.1-0.1
		c0,0,0.1,0,0.1,0.1c0.2,0.2,0.5,0.4,0.6,0.7c0,0,0,0.1,0,0.1c0,0.1,0,0.1-0.2,0.1h-1.4c0,0.3,0,0.7,0,0.9c0,0,0,0,0,0
		c0,0.3-0.2,0.3-0.6,0.4c-0.1,0-0.1,0-0.2,0c-0.3,0-0.4-0.1-0.5-0.3h-0.9c0,0.2-0.2,0.3-0.7,0.3c0,0-0.1,0-0.1,0
		c-0.3,0-0.4,0-0.4-0.3c0,0,0,0,0,0c0-0.2,0-0.7,0-1.1H8.5c0,0.1,0,0.3,0,0.4c0,0.4,0,0.8,0,1.2c0,0,4,0,4,0c0.2,0,0.2-0.1,0.3-0.2
		c0.2-0.2,0.3-0.4,0.5-0.6c0.1-0.1,0.1-0.1,0.3,0c0.2,0.2,0.6,0.6,0.8,0.8c0,0,0.1,0.1,0.1,0.2S14.4,49.8,14.2,49.8z M7.2,48.1H6.1
		c0,0.5,0,1.1,0,1.7c0.3-0.1,0.7-0.2,1.1-0.4C7.2,49,7.2,48.5,7.2,48.1z M10.5,51.1c0-0.1,0-0.2,0-0.3H9.9c0,0.3,0,0.6,0,0.9h0.6
		C10.5,51.5,10.5,51.3,10.5,51.1z M9.9,52c0,0.4,0,0.8,0,1.1h0.6c0-0.3,0-0.7,0-1.1H9.9z M10.5,47.9c0,0.2,0,0.5,0,0.7h0.9
		c0-0.2,0-0.5,0-0.7H10.5z M13.7,55.6c-0.2,0-0.4-0.1-0.6-0.3c-0.4-0.5-0.5-0.7-1.6-1.3c-0.1,0-0.1-0.1-0.1-0.1c0-0.1,0-0.1,0.2-0.1
		c0.1,0,0.2,0,0.3,0c1,0,1.9,0.1,2.3,0.6c0.2,0.2,0.2,0.4,0.2,0.6C14.4,55.3,14.1,55.6,13.7,55.6z M12.4,50.8h-0.7
		c0,0.1,0,0.2,0,0.3c0,0.2,0,0.4,0,0.6h0.7C12.4,51.4,12.4,51.1,12.4,50.8z M11.7,52c0,0.4,0,0.7,0,1.1h0.6c0-0.4,0-0.8,0-1.1H11.7z
		"/>
	<path class="st0" d="M77.9,46.9c-0.3,0.1-0.4,0.3-0.4,1.2c0,0.1,0,0.1-0.1,0.1c0,0,0,0-0.1,0c-0.1-0.1-0.3-0.2-0.3-0.2
		c0,0.5,0,1.8,0,2.1c0,0,0,0.1,0,0.1c0,0.3-0.1,0.4-0.6,0.4c-0.1,0-0.2,0-0.3,0c-0.2,0-0.4-0.1-0.5-0.3h-3.6
		c-0.1,0.3-0.2,0.3-0.7,0.4c0.6,0.3,1.4,0.6,1.4,0.6h1.9c0.1,0,0.2,0,0.3-0.1c0.2-0.2,0.4-0.4,0.5-0.6c0.1-0.1,0.2-0.1,0.3,0
		c0.3,0.2,0.7,0.4,1,0.7c0.1,0.1,0.2,0.2,0.2,0.3s0,0.2-0.2,0.3c-0.2,0.2-0.3,0.2-0.3,0.5c0,0.7,0,1.7,0,2.5c0,0,0,0,0,0.1
		c0,0.4-0.2,0.4-0.7,0.5c-0.1,0-0.3,0-0.4,0c-0.3,0-0.5-0.1-0.5-0.4c0,0,0,0,0-0.1c0-0.1,0-0.1,0-0.2s0-0.1,0-0.2h-2.4
		c0,0.1,0,0.1,0,0.2c0,0,0,0,0,0.1c0,0.3-0.2,0.5-0.8,0.5c-0.1,0-0.2,0-0.3,0c-0.3,0-0.5-0.1-0.5-0.4c0,0,0,0,0-0.1
		c0-1,0.1-2,0.1-2.7c0-0.5,0-0.9-0.1-1.2c0-0.1,0-0.3,0-0.3c0,0,0,0,0,0c-0.3,0-0.4-0.1-0.4-0.4c0,0,0-0.1,0-0.1c0-0.6,0-1.1,0-1.6
		h-1.2c0,1.1,0,2.1,0,3.4c0.4-0.1,0.9-0.2,1.3-0.4c0,0,0,0,0,0c0.1,0,0.1,0,0.1,0.1c0,0,0,0.1-0.1,0.1c-1,0.8-2.1,1.5-2.9,1.9
		c-0.1,0-0.1,0.1-0.1,0.3c0,0.2-0.1,0.3-0.2,0.3c-0.1,0-0.1,0-0.2-0.2c-0.2-0.5-0.4-1.1-0.5-1.6c0-0.1,0-0.1,0-0.1
		c0-0.1,0-0.1,0.1-0.1c0,0,0.1,0,0.1,0c0,0,0,0,0,0c0.3,0,0.6,0,0.9-0.1c0-1.2,0-2.4,0-3.7c-0.2,0-0.5,0-0.7,0.1c0,0,0,0-0.1,0
		c-0.1,0-0.1,0-0.1-0.1c0-0.1-0.1-0.2-0.1-0.3c0,0,0-0.1,0-0.1c0,0,0,0,0,0c0,0,0,0,0.1,0c0.3,0.1,0.7,0.1,0.9,0.1
		c0-1.4,0-2.7-0.1-3c0-0.2,0-0.3,0-0.3s0-0.1,0.1-0.1c0,0,0.1,0,0.2,0c0.4,0,1,0.2,1.5,0.3c0.2,0,0.3,0.1,0.3,0.2s-0.1,0.2-0.2,0.2
		c-0.2,0-0.3,0.1-0.3,0.3c0,0.7,0,1.6,0,2.4c0.1-0.2,0.3-0.5,0.4-0.7c0-0.1,0.1-0.1,0.1-0.1c0.1,0,0.1,0.1,0.1,0.1
		c0.8-0.8,1.3-1.8,1.5-2.4c0-0.1,0-0.1,0.1-0.1c0,0,0,0,0.1,0c0.5,0.2,1,0.4,1.5,0.6c0.1,0,0.2,0.1,0.2,0.2c0,0.1-0.1,0.2-0.2,0.2
		c-0.2,0-0.3,0.1-0.4,0.2c-0.3,0.3-0.6,0.6-1,0.8h3.3c0.1,0,0.2,0,0.2-0.1c-0.3-0.3-0.5-0.7-0.7-1.2h-0.4c-0.2,0-0.5,0-0.7,0.1
		c-0.1,0-0.2,0-0.2-0.1s-0.1-0.2-0.1-0.4c0,0,0-0.1,0-0.1c0,0,0,0,0,0c0,0,0,0,0.1,0c0.4,0.1,0.6,0.2,0.9,0.2h0.1
		c0.1,0,0.1,0,0.2-0.1c0.2-0.2,0.3-0.3,0.4-0.4c0,0,0,0,0.1,0c0,0,0.1,0,0.1,0c0.2,0.1,0.4,0.3,0.6,0.5c0,0,0.1,0.1,0.1,0.1
		c0,0,0,0.1-0.1,0.1c-0.2,0.1-0.5,0.2-0.5,0.2c0.5,0.5,1.1,0.6,2.5,0.6c0.1,0,0.1,0.1,0.1,0.1C78.1,46.8,78,46.9,77.9,46.9z
		 M70.9,47.9L70.5,48l0.4,0.6V47.9z M73.3,47.5h-1.1c0,0.4,0,0.7,0,1.1c0,0.5,0,1,0,1.5h1.1c0-0.3,0-0.7,0-1.2
		C73.4,48.5,73.4,47.9,73.3,47.5z M73.3,49.4c0,0.3-0.3,0.5-0.5,0.5c-0.2,0-0.4-0.1-0.4-0.4c0,0,0-0.1,0-0.1c0-0.2,0.1-0.4,0.1-0.7
		c0-0.2,0-0.4-0.1-0.6c0,0,0,0,0,0c0,0,0-0.1,0.1-0.1c0,0,0,0,0.1,0c0.6,0.5,0.8,0.9,0.8,1.3C73.3,49.2,73.3,49.3,73.3,49.4z
		 M75.2,51.8h-2.4c0,0.4,0,0.7,0,1.1h2.4C75.2,52.5,75.2,52.1,75.2,51.8z M75.2,53.2h-2.4c0,0.5,0,0.8,0,1.3h2.4c0-0.3,0-0.5,0-0.8
		C75.2,53.6,75.2,53.4,75.2,53.2z M75.8,47.5h-1.2c0,0.4,0,1.1,0,1.8c0,0.1,0,0.3,0,0.4c0.3-0.7,0.4-1.3,0.4-1.8c0,0,0,0,0-0.1
		c0,0,0,0,0,0c0,0,0,0,0.1,0c0.3,0.1,0.5,0.2,0.7,0.3C75.8,47.9,75.8,47.6,75.8,47.5z M75.8,48.6c-0.3,0.5-0.6,0.9-1.1,1.3
		c0,0-0.1,0-0.1,0c0,0.1,0,0.2,0,0.3h1.2C75.8,49.7,75.8,49.1,75.8,48.6C75.8,48.5,75.8,48.6,75.8,48.6z"/>
	<path class="st0" d="M141.4,49.4h-1.7c0,0.9,0,1.9,0,2.7c0,0,0.1,0,0.1-0.1c0.2-0.3,0.3-0.5,0.5-0.8c0.1-0.1,0.2-0.1,0.3,0
		c0.3,0.3,0.6,0.6,0.8,1c0,0.1,0.1,0.1,0.1,0.2c0,0.1-0.1,0.1-0.2,0.1h-8.7c-0.5,0-0.9,0-1.1,0.1c-0.1,0-0.2,0-0.2-0.1
		c0-0.1-0.1-0.2-0.1-0.4c0,0,0-0.1,0-0.1c0,0,0,0,0,0c0,0,0,0,0.1,0c0.3,0.1,0.9,0.2,1.3,0.2c0-0.9,0-1.9,0-2.8h-0.2
		c-0.5,0-1,0-1.2,0.1c-0.1,0-0.2,0-0.2-0.1c0-0.1-0.1-0.2-0.1-0.4c0,0,0-0.1,0-0.1c0,0,0,0,0,0c0,0,0,0,0.1,0c0.4,0.1,1,0.2,1.4,0.2
		h0.2c0-0.4,0-0.8,0-1.3c-0.4,0.3-0.9,0.6-1.3,0.8c-0.1,0-0.1,0-0.2,0c0,0-0.1,0-0.1-0.1c0,0,0-0.1,0.1-0.2c0.9-1.1,1.5-2.4,1.7-3.3
		c0-0.1,0-0.2,0.1-0.2c0,0,0,0,0.1,0c0.6,0.2,1.1,0.2,1.7,0.4c0.2,0,0.2,0.1,0.2,0.2c0,0.1-0.1,0.2-0.3,0.2c-0.2,0-0.3,0-0.4,0.2
		c-0.1,0.1-0.1,0.2-0.2,0.4h4.9c0.1,0,0.2,0,0.3-0.1c0.2-0.2,0.5-0.6,0.6-0.8c0,0,0.1-0.1,0.1-0.1s0.1,0,0.1,0.1
		c0.4,0.3,0.7,0.6,1.1,1c0,0,0.1,0.1,0.1,0.2c0,0.1,0,0.1-0.2,0.1h-1.2c0,0.8,0,1.6,0,2.4c0.1,0,0.2,0,0.2-0.1
		c0.2-0.3,0.3-0.6,0.5-0.8c0.1-0.1,0.1-0.1,0.3,0c0.3,0.3,0.6,0.6,0.9,1c0,0.1,0.1,0.1,0.1,0.2C141.6,49.4,141.5,49.4,141.4,49.4z
		 M132.1,55.5c-0.1,0-0.2,0-0.3,0c-0.5,0-0.8-0.4-0.8-0.8c0-0.3,0.2-0.6,0.5-0.7c0.6-0.2,1-0.5,1.4-1.3c0.1-0.2,0.2-0.2,0.2,0
		c0,0.3,0,0.5,0,0.8C133.2,54.5,133,55.3,132.1,55.5z M134.5,46.7h-0.6c0,0.8,0,1.6,0,2.4h0.7C134.5,48.3,134.5,47.5,134.5,46.7z
		 M133.9,49.4c0,0.9,0,1.9,0,2.8h0.6c0-0.9,0-1.9,0-2.8H133.9z M135.7,54.7c-0.1,0.5-0.4,0.7-0.8,0.7c-0.3,0-0.6-0.2-0.6-0.6
		c0-0.6,0.2-0.7,0.2-1.3c0-0.2,0-0.4-0.1-0.6c0,0,0,0,0,0c0-0.1,0-0.1,0.1-0.1c0,0,0.1,0,0.1,0.1c0.6,0.6,1,1,1,1.7
		C135.7,54.6,135.7,54.7,135.7,54.7z M136.4,46.7h-0.6c0,0.8,0,1.6,0,2.4h0.7C136.4,48.3,136.4,47.5,136.4,46.7z M135.8,49.4
		c0,0.9,0,1.9,0,2.8h0.6c0-0.9,0-1.9,0-2.8H135.8z M137.6,55.4c-0.3,0-0.5-0.2-0.6-0.5c0-0.2-0.1-0.4-0.1-0.5c0-0.1,0-0.1,0-0.2
		c0-0.3,0-0.7-0.3-1.2c0-0.1,0-0.2,0.1-0.2c0,0,0.1,0,0.1,0c0.9,0.5,1.5,0.9,1.6,1.7c0,0,0,0,0,0C138.4,55.1,138,55.4,137.6,55.4z
		 M138.4,46.7h-0.7c0,0.8,0,1.6,0,2.4h0.7C138.4,48.3,138.4,47.5,138.4,46.7z M137.6,49.4c0,0.9,0,1.9,0,2.8h0.7c0-0.9,0-1.9,0-2.8
		H137.6z M140.4,55.6c-0.3,0-0.6-0.2-0.7-0.6c-0.2-0.7-0.1-1.3-0.8-2.1c0,0,0-0.1,0-0.1c0-0.1,0-0.1,0.1-0.1c0,0,0,0,0.1,0
		c1,0.4,2.1,0.9,2.2,1.8c0,0.1,0,0.1,0,0.2C141.3,55.2,140.9,55.6,140.4,55.6z"/>
	<path class="st0" d="M199,46.2c-0.2,0.1-0.3,0.1-0.3,0.3c0,0.8,0,1.1,0,2.1c0,0,0,0,0,0c0,0.3-0.3,0.4-0.7,0.5c-0.2,0-0.3,0-0.4,0
		c0,0.6,0,1.1,0,1.7c0.1,0,0.1,0,0.1-0.1c0.1-0.2,0.3-0.4,0.4-0.6c0,0,0.1,0,0.1,0c0,0,0.1,0,0.1,0c0.2,0.2,0.5,0.5,0.7,0.8
		c0,0,0,0.1,0,0.1s0,0.1-0.1,0.1h-1.4c0,0.2,0,0.5,0,0.7c0,0.5,0,1,0,1.5c0.4-0.1,0.9-0.2,1.3-0.3c0,0,0,0,0,0c0.1,0,0.1,0,0.1,0.1
		c0,0,0,0.1-0.1,0.1c-1.5,0.8-2.8,1.4-3.7,1.8c-0.1,0-0.2,0.1-0.2,0.3c0,0.1-0.1,0.2-0.2,0.2s-0.1-0.1-0.2-0.2
		c-0.1-0.5-0.3-0.9-0.4-1.4c0-0.1,0-0.1,0-0.1c0-0.1,0.1-0.1,0.3-0.1c0,0,0.1,0,0.1,0c0-0.7,0-1.4,0-1.9c0-0.7,0-1.2-0.1-1.5
		c0-0.1,0-0.2,0-0.3c0-0.1,0-0.1,0.1-0.1c0,0,0.1,0,0.1,0c0.4,0.1,0.7,0.1,1.2,0.2c0.1,0,0.2,0.1,0.2,0.2c0,0.1-0.1,0.1-0.2,0.2
		c-0.2,0-0.2,0.1-0.2,0.3c0,0.6,0,1.1,0,1.7c0,0.4,0,0.8,0,1.3c0.1,0,0.2,0,0.4,0c0-0.7,0-1.4,0-2.1c0-0.9,0-1.7,0-2.5h-0.1
		c0,0,0,0,0,0c0,0.3-0.3,0.4-0.7,0.4c0,0-0.1,0-0.2,0c-0.3,0-0.5,0-0.5-0.3c0,0,0,0,0,0c0-0.6,0.1-1.4,0.1-2c0-0.7,0-1.3-0.1-1.5
		c0-0.1-0.1-0.2-0.1-0.2s0-0.1,0.1-0.1c0,0,0.1,0,0.1,0c0.6,0.3,1.4,0.6,1.4,0.6h0.7c0.1,0,0.2,0,0.2-0.1c0.2-0.2,0.4-0.4,0.6-0.6
		c0.1-0.1,0.2-0.1,0.3,0c0.3,0.2,0.5,0.4,0.9,0.6c0.1,0.1,0.1,0.1,0.1,0.2S199.1,46.2,199,46.2z M197.4,46.1h-1.1c0,0.5,0,1,0,1.7
		c0,0.3,0,0.5,0,0.8h1.2c0-0.6,0-1.1,0-1.6C197.4,46.7,197.4,46.4,197.4,46.1z M205,54.8h-4.2c0,0.1,0,0.1,0,0.2c0,0,0,0,0,0
		c0,0.4-0.2,0.5-0.8,0.5c-0.1,0-0.2,0-0.3,0c-0.3,0-0.5-0.1-0.5-0.4c0,0,0,0,0,0c0-1.5,0.1-4.4,0.1-6.6c0-1.5,0-2.7-0.1-3
		c-0.1-0.3-0.1-0.4,0-0.4c0,0,0.1,0,0.2,0c0.6,0.3,1.6,0.7,1.6,0.7h1.8c0.1,0,0.2,0,0.2-0.1c0.2-0.3,0.5-0.5,0.7-0.8
		c0,0,0.1,0,0.1,0c0,0,0.1,0,0.1,0c0.3,0.3,0.6,0.6,1,0.9c0,0,0.1,0.1,0.1,0.2c0,0.1,0,0.1-0.2,0.1h-4c0,0.2,0,1.1,0,2.2h1.6
		c0.1,0,0.2,0,0.2-0.1c0.2-0.2,0.4-0.4,0.6-0.7c0,0,0.1-0.1,0.1-0.1c0,0,0.1,0,0.2,0.1c0.3,0.2,0.7,0.5,1,0.8
		c0.1,0.1,0.1,0.1,0.1,0.2c0,0.1,0,0.2-0.1,0.2c-0.2,0.1-0.3,0.2-0.3,0.4c0,0.4,0,0.8,0,1.3c0,0.3,0,0.7,0,1.2c0,0,0,0,0,0
		c0,0.3-0.3,0.4-0.8,0.4c-0.1,0-0.2,0-0.3,0c-0.3,0-0.4,0-0.4-0.3c0,0,0,0,0,0c0-0.1,0-0.3,0-0.4h-1.9c0,1.1,0,2.1,0,2.9h2
		c0.1,0,0.2,0,0.2-0.1c0.3-0.3,0.5-0.6,0.8-0.9c0,0,0.1,0,0.1,0s0.1,0,0.1,0c0.3,0.3,0.7,0.6,1.1,1.1c0,0,0.1,0.1,0.1,0.1
		C205.2,54.7,205.1,54.8,205,54.8z M202.6,48.8h-1.9c0,0.8,0,1.6,0,2.5h1.9c0-0.5,0-1.1,0-1.5C202.7,49.4,202.6,49.1,202.6,48.8z"/>
</g>
</svg>
